<?xml version="1.0" encoding="UTF-8"?>
<svg id="Calque_2" data-name="Calque 2" xmlns="http://www.w3.org/2000/svg" viewBox="0 0 957.5 957.5">
  <defs>
    <style>
      .cls-1 {
        fill: #ec1d24;
      }

      .cls-2 {
        fill: #fff;
      }

      .cls-3 {
        fill: #fded01;
      }

      .cls-4 {
        fill: #fdeb02;
      }

      .cls-5 {
        fill: #fde902;
      }

      .cls-6 {
        fill: #fde802;
      }

      .cls-7 {
        fill: #ed2024;
      }

      .cls-8 {
        fill: #ec1e23;
      }

      .cls-9 {
        fill: #fdea02;
      }

      .cls-10 {
        fill: #99d9ea;
      }

      .cls-11 {
        fill: #fde702;
      }

      .cls-12 {
        fill: #fde602;
      }

      .cls-13 {
        fill: #ec1c24;
      }

      .cls-14 {
        fill: #fff200;
      }

      .cls-15 {
        fill: #ed1c24;
      }
    </style>
  </defs>
  <g id="Calque_Logo" data-name="Calque Logo">
    <circle class="cls-10" cx="478.75" cy="478.75" r="478.75"/>
    <path class="cls-15" d="m792.42,301.87c-1.16-2.08-2.34-4.15-3.54-6.2-62.34-106.72-178.11-178.42-310.63-178.42s-245.74,70.13-308.55,174.91c-1.95,3.24-3.84,6.51-5.67,9.81h-.01c-28.84,51.74-45.27,111.34-45.27,174.78,0,198.53,160.92,359.47,359.44,359.5h.06c1.02,0,2.03,0,3.05-.02,197.15-1.63,356.45-161.95,356.45-359.48,0-63.48-16.45-123.12-45.33-174.88Zm-198.18,157.04c1,6.13,1.51,12.43,1.51,18.84,0,49.32-30.39,91.54-73.47,108.96,4.25,21.86,6.47,44.44,6.47,67.54,0,65.5-17.87,126.83-49,179.39-31.13-52.56-49-113.89-49-179.39,0-22.72,2.15-44.93,6.26-66.45-44.55-16.7-76.26-59.67-76.26-110.05,0-6.87.59-13.61,1.73-20.16-79.42-28.14-145.76-83.94-187.42-155.83.4-.01.79-.01,1.19-.01,87.25,0,167.09,31.7,228.65,84.21,20.1-16.09,45.61-25.71,73.35-25.71s54.56,10.12,74.89,26.96c61.75-53.25,142.17-85.46,230.11-85.46.73,0,1.45,0,2.18.01-42.31,73.02-110.1,129.45-191.19,157.15Z"/>
    <path class="cls-14" d="m528.75,654.25c0,65.5-17.87,126.83-49,179.39-31.13-52.56-49-113.89-49-179.39,0-22.72,2.15-44.93,6.26-66.45,12.83,4.82,26.73,7.45,41.24,7.45,15.57,0,30.43-3.03,44.03-8.54,4.25,21.86,6.47,44.44,6.47,67.54Z"/>
    <path class="cls-14" d="m404.9,385.96c-21.93,17.55-37.44,42.79-42.42,71.63-79.42-28.14-145.76-83.94-187.42-155.83.4-.01.79-.01,1.19-.01,87.25,0,167.09,31.7,228.65,84.21Z"/>
    <path class="cls-14" d="m785.43,301.76c-42.31,73.02-110.1,129.45-191.19,157.15-4.62-28.71-19.65-53.94-41.1-71.7,61.75-53.25,142.17-85.46,230.11-85.46.73,0,1.45,0,2.18.01Z"/>
    <circle class="cls-2" cx="686.25" cy="598.25" r="60.5"/>
    <circle class="cls-2" cx="479.25" cy="240.25" r="60.5"/>
    <circle class="cls-2" cx="274.25" cy="598.25" r="60.5"/>
    <path class="cls-2" d="m595.85,478.06c0,49.32-30.39,91.55-73.47,108.96-13.6,5.51-28.46,8.54-44.03,8.54-14.51,0-28.41-2.63-41.24-7.45-44.55-16.69-76.26-59.67-76.26-110.05,0-6.87.59-13.61,1.73-20.16,4.98-28.84,20.48-54.08,42.41-71.62,20.1-16.1,45.6-25.72,73.36-25.72s54.57,10.12,74.9,26.96c21.44,17.76,36.47,42.99,41.09,71.7,1,6.13,1.51,12.43,1.51,18.84Z"/>
    <g>
      <path class="cls-13" d="m391.8,240.02c0,28.38.02,56.77-.04,85.15,0,2.04.03,3.04,2.71,3.03,55.76-.11,111.52-.1,167.28,0,2.37,0,2.63-.64,2.63-2.74-.06-57.02-.07-114.03.02-171.05,0-2.37-.64-2.63-2.74-2.63-55.76.06-111.52.07-167.28-.02-2.37,0-2.64.64-2.63,2.74.08,28.51.05,57.02.05,85.53Zm119.2,33.28c-.91-3.24-2.63-5.7-3.97-8.34-.33-.64-.88-1.31-.16-2.01.69-.68,1.42-.35,2,.15,4.63,3.99,9.58,7.65,12.87,12.97,1.98,3.19,1.68,6.17-.74,8.95-1.04,1.2-2,2.98-3.81,2.66-1.76-.31-1.36-2.41-1.99-3.67-.39-.77-.58-1.65-.86-2.47-1.75-5.09-1.78-5.27-7.08-4.39-15.35,2.54-30.85,4.27-46,8.04-2.37.59-4.94,3.11-6.84,1.82-1.91-1.3-2.47-4.48-3.82-6.72-1.57-2.61-.46-3.04,2.01-3.15,8.6-.38,17.2-.99,25.8-1.35,2.27-.1,3.06-.9,2.95-3.13-.15-2.99-.18-6.01.01-8.99.18-2.81-.59-3.91-3.69-3.86-11.74.19-23.5.18-35.24,0-3.03-.05-3.78.95-3.74,3.81.14,11.37.06,22.75.04,34.12,0,1.45.39,3.06-1.4,3.91-2.1.99-4.17,2.02-6.35,3.09-.2-.63-.4-.97-.4-1.31.44-16.49.49-32.98-.07-49.47-.07-2.19.73-2.89,2.52-1.54,5.49,4.16,11.8,4.02,18.2,3.88,7.12-.16,14.25-.04,21.37-.04,9.46,0,9.4,0,8.75-9.64-.13-1.98-.84-2.54-2.71-2.52-7.37.08-14.75.01-22.12.05-.8,0-2.23-.41-2.27.6-.16,3.29-3.01,3.19-4.9,4.33-2.78,1.66-3.72,1.11-3.62-2.29.32-10.48.86-20.97.37-31.47-.19-3.97-.03-7.95-.03-12.04,3.62.43,6.33,3.48,10.12,3.47,19.37-.03,38.74-.03,58.11.02,1.72,0,2.95-.51,3.55-2.09,1.41-3.66,3.34-3.7,5.83-1,.67.72,1.47,1.39,2.34,1.86,2.32,1.26,2.12,2.74.49,4.37-1.56,1.55-1.77,3.45-1.72,5.52.2,8.99.26,17.99.54,26.98.07,2.21-.52,3.46-2.68,4.11-1.75.53-3.39,1.39-5.53,2.29.78-4.36-1.24-4.95-4.56-4.76-4.86.28-9.74.07-14.62.07-9.11,0-9.05,0-8.83,9.1.05,2.18.58,3.09,2.94,3.08,12.25-.09,24.49-.06,36.74-.02,1.63,0,2.73-.41,3.71-1.88,2.97-4.48,3.05-4.43,7.18-.84.57.49,1.08,1.07,1.71,1.46,1.92,1.2,2.29,2.43.38,4.01-1.98,1.65-2.35,3.85-2.31,6.37.14,9.12-.08,18.25.16,27.37.15,5.81-2.63,9.4-7.51,11.82-1.84.91-3.34,1.25-4.47-1.24-1.01-2.22-3.24-3.38-5.36-4.5-3.23-1.7-6.72-2.61-10.24-3.43-1.29-.3-2.09-.82-1.77-2.25.34-1.54,1.57-.91,2.44-.83,4.6.41,9.18,1.02,13.78,1.32,4.36.28,5.25-.62,5.28-5.11.07-8.37-.08-16.75.08-25.12.05-2.76-.74-3.67-3.59-3.62-9.12.17-18.25-.02-27.37.1-3.82.05-9.03-1.75-11.07.83-1.91,2.42-.49,7.42-.7,11.27-.13,2.33.72,3.1,3.02,2.87,6.18-.59,12.37-1.05,18.84-1.58Zm4.27-99.43c.15.28.3.55.45.83-4.89,1.46-5.11,5.01-4.86,8.98.13,2.05.67,2.9,2.81,2.83,3.87-.12,7.76-.27,11.61.02,6.33.48,12.18.04,16.29-5.68.61-.85,1.38-1.4,2.44-.35,2.98,2.94,6.01,5.81,9.2,8.87-1.78,1.06-3.05.71-4.24.71-10.49.03-20.98.02-31.48.02q-6.51,0-6.57,6.43c-.03,3.18-3.51,6.83-7.05,6.3-2.72-.4-.86-3.41-1.27-5.19-.24-1.07-.16-2.25-.02-3.36.39-3.14-.57-4.41-4.06-4.27-7.36.29-14.74.09-22.11.09q-8.27,0-8.39,8.4c-.02,1.6.28,3.31-1.73,4.1-2.02.79-4.01,1.64-6.5,2.67,0-4.6,0-8.58,0-12.55,0-1.27.04-2.64-1.82-2.59-10.09.29-20.24-.9-30.28.85-4.28.74-5.72.09-7.92-4.5,1.34,0,2.58,0,3.81,0,10.74,0,21.49-.13,32.22.07,3.44.06,4.28-1.08,3.92-4.33-.42-3.84-.26-7.73-.43-11.6-.06-1.47.34-2.17,1.87-1.52,3.8,1.61,7.6,3.26,11.4,4.89-4.87,1.74-4.63,5.35-4.59,9.11.02,2.57.77,3.47,3.41,3.43,9.24-.14,18.49-.16,27.73,0,2.94.05,3.6-1.08,3.49-3.74-.18-4.45-.05-8.92-.05-13.65,4.19,1.56,8.47,3.14,12.74,4.73Z"/>
      <path class="cls-6" d="m511.01,273.3c-6.48.53-12.67.98-18.84,1.58-2.3.22-3.15-.54-3.02-2.87.22-3.85-1.21-8.85.7-11.27,2.04-2.58,7.25-.77,11.07-.83,9.12-.13,18.25.07,27.37-.1,2.84-.05,3.64.85,3.59,3.62-.15,8.37-.01,16.75-.08,25.12-.04,4.49-.92,5.39-5.28,5.11-4.6-.3-9.18-.91-13.78-1.32-.87-.08-2.1-.71-2.44.83-.32,1.43.48,1.95,1.77,2.25,3.52.82,7.01,1.73,10.24,3.43,2.12,1.12,4.35,2.28,5.36,4.5,1.12,2.48,2.63,2.15,4.47,1.24,4.88-2.43,7.66-6.02,7.51-11.82-.24-9.12-.02-18.25-.16-27.37-.04-2.53.32-4.72,2.31-6.37,1.91-1.59,1.54-2.81-.38-4.01-.63-.39-1.14-.97-1.71-1.46-4.13-3.58-4.21-3.64-7.18.84-.98,1.47-2.08,1.89-3.71,1.88-12.25-.04-24.49-.07-36.74.02-2.37.02-2.89-.89-2.94-3.08-.22-9.1-.28-9.1,8.83-9.1,4.87,0,9.76.21,14.62-.07,3.32-.19,5.34.4,4.56,4.76,2.14-.9,3.78-1.76,5.53-2.29,2.17-.65,2.75-1.9,2.68-4.11-.28-8.99-.34-17.99-.54-26.98-.05-2.07.16-3.97,1.72-5.52,1.63-1.63,1.83-3.1-.49-4.37-.86-.47-1.67-1.14-2.34-1.86-2.5-2.7-4.43-2.67-5.83,1-.61,1.58-1.84,2.09-3.55,2.09-19.37-.05-38.74-.05-58.11-.02-3.78,0-6.5-3.04-10.12-3.47,0,4.08-.16,8.07.03,12.04.5,10.5-.05,20.98-.37,31.47-.1,3.4.84,3.95,3.62,2.29,1.9-1.13,4.74-1.03,4.9-4.33.05-1,1.48-.59,2.27-.6,7.37-.04,14.75.02,22.12-.05,1.88-.02,2.58.54,2.71,2.52.65,9.64.71,9.64-8.75,9.64-7.12,0-14.25-.12-21.37.04-6.4.14-12.72.28-18.2-3.88-1.79-1.36-2.59-.65-2.52,1.54.56,16.49.51,32.98.07,49.47,0,.34.2.68.4,1.31,2.19-1.06,4.26-2.1,6.35-3.09,1.8-.85,1.4-2.46,1.4-3.91.02-11.37.09-22.75-.04-34.12-.03-2.86.71-3.86,3.74-3.81,11.74.18,23.5.18,35.24,0,3.1-.05,3.87,1.05,3.69,3.86-.19,2.99-.16,6-.01,8.99.11,2.23-.67,3.04-2.95,3.13-8.6.36-17.2.97-25.8,1.35-2.47.11-3.58.54-2.01,3.15,1.35,2.24,1.91,5.42,3.82,6.72,1.9,1.29,4.47-1.23,6.84-1.82,15.15-3.77,30.64-5.5,46-8.04,5.3-.88,5.33-.7,7.08,4.39.28.83.47,1.7.86,2.47.63,1.26.23,3.36,1.99,3.67,1.81.32,2.76-1.46,3.81-2.66,2.42-2.78,2.71-5.76.74-8.95-3.3-5.32-8.25-8.98-12.87-12.97-.58-.5-1.31-.83-2-.15-.72.7-.17,1.36.16,2.01,1.34,2.64,3.06,5.1,3.97,8.34Zm-8.08-62.95h3.75c10.89,0,10.81,0,10.5,10.78-.07,2.4-.95,2.94-3.1,2.89-4.87-.11-9.74-.03-14.62-.03-10.66,0-10.6,0-10.33-10.64.05-2.19.56-3.15,2.94-3.03,3.61.18,7.24.05,10.87.04Zm-35.64,0h4.11c10.18,0,10.06,0,10,10.18-.02,2.89-1.02,3.61-3.7,3.5-4.48-.18-8.97-.05-13.46-.05-10.54,0-10.45,0-10.3-10.61.04-2.55.91-3.18,3.25-3.06,3.36.16,6.73.04,10.09.04Zm35.53,17.26h4.87c10.03,0,9.98,0,9.46,10.3-.1,1.93-.67,2.64-2.61,2.61-5.25-.09-10.49-.02-15.74-.02q-10.16,0-9.64-10.16c0-.12.02-.25,0-.37-.18-1.78.64-2.41,2.4-2.37,3.75.09,7.49.03,11.24.02Zm-35.26,0h4.49c9.87,0,9.81,0,9.33,10.08-.1,2.05-.7,2.87-2.82,2.83-4.98-.11-9.97-.03-14.95-.03-10.03,0-9.97,0-9.64-10.13.07-2.07.61-2.87,2.76-2.78,3.61.15,7.23.04,10.84.04Z"/>
      <path class="cls-6" d="m515.27,173.87c-4.27-1.59-8.54-3.17-12.74-4.73,0,4.73-.13,9.2.05,13.65.11,2.66-.55,3.79-3.49,3.74-9.24-.17-18.49-.14-27.73,0-2.64.04-3.39-.86-3.41-3.43-.04-3.76-.27-7.37,4.59-9.11-3.8-1.63-7.59-3.27-11.4-4.89-1.53-.65-1.93.05-1.87,1.52.17,3.87,0,7.76.43,11.6.36,3.25-.48,4.39-3.92,4.33-10.74-.2-21.48-.07-32.22-.07-1.23,0-2.46,0-3.81,0,2.2,4.59,3.64,5.25,7.92,4.5,10.04-1.75,20.19-.56,30.28-.85,1.87-.05,1.82,1.32,1.82,2.59.01,3.97,0,7.95,0,12.55,2.49-1.03,4.49-1.88,6.5-2.67,2.01-.79,1.71-2.5,1.73-4.1q.12-8.4,8.39-8.4c7.37,0,14.75.2,22.11-.09,3.49-.14,4.45,1.13,4.06,4.27-.14,1.11-.22,2.29.02,3.36.41,1.79-1.45,4.79,1.27,5.19,3.53.53,7.02-3.12,7.05-6.3q.06-6.43,6.57-6.43c10.49,0,20.98.01,31.48-.02,1.19,0,2.45.35,4.24-.71-3.18-3.06-6.22-5.94-9.2-8.87-1.06-1.05-1.83-.49-2.44.35-4.11,5.72-9.96,6.16-16.29,5.68-3.85-.29-7.74-.15-11.61-.02-2.14.07-2.68-.78-2.81-2.83-.25-3.97-.03-7.52,4.86-8.98-.15-.28-.3-.55-.45-.83Z"/>
      <path class="cls-13" d="m502.93,210.36c-3.62,0-7.25.13-10.87-.05-2.38-.12-2.88.85-2.94,3.03-.26,10.64-.32,10.64,10.33,10.64,4.87,0,9.75-.08,14.62.03,2.15.05,3.04-.49,3.1-2.89.31-10.78.39-10.78-10.5-10.78-1.25,0-2.5,0-3.75,0Z"/>
      <path class="cls-13" d="m467.29,210.36c-3.36,0-6.74.12-10.09-.04-2.34-.11-3.22.52-3.25,3.06-.15,10.61-.24,10.61,10.3,10.61,4.49,0,8.98-.13,13.46.05,2.68.11,3.69-.61,3.7-3.5.06-10.18.17-10.18-10-10.18-1.37,0-2.74,0-4.11,0Z"/>
      <path class="cls-13" d="m502.82,227.61c-3.75,0-7.5.06-11.24-.02-1.76-.04-2.58.58-2.4,2.37.01.12,0,.25,0,.37q-.52,10.16,9.64,10.16c5.25,0,10.49-.06,15.74.02,1.94.03,2.51-.67,2.61-2.61.51-10.3.57-10.3-9.46-10.3-1.62,0-3.25,0-4.87,0Z"/>
      <path class="cls-13" d="m467.56,227.61c-3.61,0-7.23.11-10.84-.04-2.15-.09-2.69.72-2.76,2.78-.33,10.13-.39,10.13,9.64,10.13,4.98,0,9.97-.08,14.95.03,2.12.05,2.72-.77,2.82-2.83.49-10.08.54-10.08-9.33-10.08-1.5,0-2.99,0-4.49,0Z"/>
    </g>
    <g>
      <path class="cls-1" d="m199.82,682.1c48.71,0,97.42-.03,146.14.07,2.57,0,3.07-.5,3.07-3.07-.1-53.76-.1-107.52,0-161.27,0-2.57-.5-3.08-3.07-3.07-47.71.1-95.43.1-143.14,0-2.57,0-3.07.5-3.07,3.07.1,54.76.07,109.52.07,164.28Zm42.15-69.79c-.05-1.09-.66-1.47-1.7-1.45-8.09.16-16.22-.58-24.26.99-3.94.77-5.71-.28-7.39-4.49,1.02-.05,2-.13,2.99-.13,13.85,0,27.7,0,41.55-.01,4.14,0,4.25-.19,3.04-4.26-1.08-3.64-2.93-6.86-5.28-9.82-.43-.54-1.24-1.07-.68-1.91.59-.9,1.52-.82,2.35-.42,3.03,1.47,6.16,2.77,8.79,4.91,4.1,3.33,4.25,5.41.88,9.63-.36.46-.91.9-.32,1.87,8.06,0,16.27-.03,24.49.03,1.76.01,2.32-1.1,2.95-2.36,2.43-4.93,4.28-10.08,5.94-15.63,3.24,2.31,6.55,4.11,9.37,6.86-5.06,2.88-9.06,6.34-12.97,11.12,6.66,0,12.43-.39,18.12.1,7.39.63,13.81-.4,18.19-7.11.13-.2.37-.34.53-.53.84-.99,1.59-.86,2.48.03,3.5,3.48,7.05,6.91,11.38,11.14-2.56,0-3.89,0-5.22,0-30.19,0-60.39-.01-90.58.04-1.36,0-2.99-.75-4.1.78,3.75,1.29,7.15,3.26,10.92,5.28-1.32,1.1-2.28,1.85-3.2,2.67-1.18,1.06-1.07,2.56-.85,3.85.26,1.59,1.8.96,2.79.99,3.37.08,6.74-.04,10.11.06,1.76.05,3.23-.3,4.17-1.87,2.07-3.44,4.21-3.16,6.5-.23.46.58,1.03,1.11,1.65,1.52,2.37,1.58,2.49,3.11,0,4.66-1.9,1.18-1.78,3.19-1.9,5.02-.41,6.11-1.27,12.16-2.41,18.18-1.2,6.32-4.94,10.48-10.63,13.08-.97.44-2.08,1.36-2.75-.35-2.01-5.14-6.62-7.2-11.07-9.47-.82-.42-2.13-.58-1.77-1.98.43-1.69,1.8-1,2.78-.81,3.05.59,6.06,1.45,9.12,1.96,4.31.73,6.43-.66,7.4-4.8,1.46-6.22,1.74-12.6,2.41-18.93.19-1.78-.42-2.46-2.25-2.41-3.99.1-7.99.15-11.98-.02-2.25-.1-3.34.61-3.9,2.86-4.83,19.5-19.24,29.14-36.75,35.55-.77.28-1.65.96-2.23-.26-.73-1.55.81-1.6,1.51-1.99,4.26-2.35,8.44-4.82,12.39-7.68,8.71-6.33,14.41-14.75,17.36-25.04.32-1.11,1.73-3.33-1.06-3.31-5.85.04-11.77-.85-17.52.5-3.85.9-5.58-1-7.39-4.19,8.46,0,16.44-.08,24.42.05,2.44.04,3.39-.87,3.4-3.23,0-3,.15-5.99.23-8.99Zm91.88-66.27c-.14.35-.27.7-.41,1.06h-3.61c-14.73,0-29.46,0-44.19,0-7.55,0-7.44,0-7.34,7.6.03,2.6,1.06,3.1,3.34,3.06,6.37-.11,12.74-.27,19.1.04,4.88.24,9.11-.34,12.09-4.72.55-.81,1.37-2.03,2.7-.74,2.81,2.73,5.64,5.45,8.45,8.17-.18.28-.35.56-.53.84h-4c-23.97,0-47.94.03-71.91-.03-3.64,0-7.38-.11-10.76.97-4.38,1.39-6.42-.79-8.48-3.86,1.3-1.17,2.73-.67,4.03-.68,11.61-.05,23.22-.09,34.83.02,2.61.03,3.42-.79,3.43-3.4.03-7.27.14-7.27-7.32-7.27-1.12,0-2.25-.03-3.37,0-11.22.31-22.53-1.13-33.62.97-4.58.87-6.51-1.01-8.97-4.6,1.92,0,3.25,0,4.58,0,14.98,0,29.96-.08,44.94.06,3.02.03,4-.94,3.71-3.84-.26-2.61-.16-5.24-.32-7.86-.11-1.76.2-2.72,2.21-1.78,3.33,1.56,6.68,3.09,10.36,4.78-1.2,1.12-2.01,2.07-3,2.77-1.79,1.26-1.67,3.07-1.27,4.73.46,1.91,2.28,1.09,3.49,1.1,8.11.08,16.24-.24,24.34.13,6.15.28,11.61-.28,15.3-5.97.96-1.48,2.01-1.4,3.29-.1,2.89,2.93,5.93,5.71,8.9,8.56Zm-98.16,19.83c2.17-.11,3.49,1.21,5.06,1.86,1.93.79,3.64,2.03,5.93,2.03,19.33-.06,38.66-.04,57.99-.02,1.41,0,2.83,0,3.69-1.31,2.46-3.77,4.74-2.81,7.06.13.46.58,1.01,1.13,1.62,1.55,2.16,1.49,2.01,2.79-.23,3.98-1.43.75-1.68,1.96-1.6,3.46.13,2.37.05,4.74.16,7.11.3,6.04.3,5.96-5.63,7.65-1.67.48-2.4.35-2.25-1.46.21-2.38-1.22-2.66-3.05-2.49-.12.01-.25,0-.37,0-18.96,0-37.91-.01-56.87.03-1.1,0-2.98-.76-3.15.95-.46,4.5-4.34,3.17-6.75,4.28-1.41.65-1.66-.42-1.61-1.56.43-8.71.33-17.42,0-26.19Zm49.57,55.16c3.83.45,6.32,3.57,10.03,3.5,6.49-.12,12.98-.03,19.47-.04,1.11,0,2.13,0,3.08-.93,1.34-1.32,2.05-4.08,4.21-3.56,1.75.43,3.16,2.32,4.68,3.61.94.8,1.8,1.69,3.12,2.94-5.75,2.01-4.9,6.63-4.78,10.94.14,5.12.21,10.24.54,15.35.15,2.29-.42,3.64-2.55,4.73-4.92,2.51-4.99,2.62-4.9-2.83.04-2.52-.56-3.53-3.29-3.45-6.36.19-12.73.1-19.1.04-1.89-.02-2.94.23-3,2.58-.14,5.79-1.01,6.58-7.59,8.01.97-13.64.86-27.2.07-40.89Z"/>
      <path class="cls-12" d="m333.86,546.04c-2.98-2.84-6.01-5.63-8.9-8.56-1.29-1.31-2.33-1.38-3.29.1-3.69,5.69-9.15,6.25-15.3,5.97-8.1-.37-16.23-.05-24.34-.13-1.21-.01-3.04.81-3.49-1.1-.4-1.66-.52-3.47,1.27-4.73.99-.7,1.8-1.64,3-2.77-3.68-1.7-7.03-3.22-10.36-4.78-2.01-.95-2.32.02-2.21,1.78.16,2.62.06,5.26.32,7.86.29,2.9-.7,3.87-3.71,3.84-14.98-.14-29.96-.07-44.94-.06-1.33,0-2.66,0-4.58,0,2.47,3.59,4.39,5.47,8.97,4.6,11.08-2.1,22.4-.66,33.62-.97,1.12-.03,2.25,0,3.37,0,7.46,0,7.35,0,7.32,7.27-.01,2.61-.82,3.43-3.43,3.4-11.61-.12-23.22-.07-34.83-.02-1.29,0-2.73-.5-4.03.68,2.06,3.08,4.1,5.25,8.48,3.86,3.39-1.07,7.12-.98,10.76-.97,23.97.06,47.94.03,71.91.03h4c.18-.28.35-.56.53-.84-2.82-2.72-5.64-5.44-8.45-8.17-1.32-1.29-2.15-.06-2.7.74-2.98,4.38-7.21,4.96-12.09,4.72-6.35-.31-12.73-.15-19.1-.04-2.28.04-3.31-.46-3.34-3.06-.1-7.6-.21-7.6,7.34-7.6,14.73,0,29.46,0,44.19,0h3.61c.14-.35.27-.7.41-1.06Z"/>
      <path class="cls-5" d="m241.98,612.31c-.08,3-.23,5.99-.23,8.99,0,2.36-.96,3.27-3.4,3.23-7.98-.12-15.96-.05-24.42-.05,1.82,3.19,3.54,5.09,7.39,4.19,5.76-1.35,11.68-.45,17.52-.5,2.79-.02,1.38,2.2,1.06,3.31-2.95,10.29-8.66,18.71-17.36,25.04-3.94,2.87-8.12,5.33-12.39,7.68-.71.39-2.24.43-1.51,1.99.58,1.22,1.46.54,2.23.26,17.51-6.4,31.91-16.05,36.75-35.55.56-2.24,1.65-2.96,3.9-2.86,3.99.17,7.99.12,11.98.02,1.83-.04,2.44.63,2.25,2.41-.68,6.33-.95,12.71-2.41,18.93-.97,4.14-3.09,5.53-7.4,4.8-3.06-.52-6.07-1.37-9.12-1.96-.98-.19-2.35-.88-2.78.81-.36,1.4.95,1.56,1.77,1.98,4.45,2.27,9.06,4.33,11.07,9.47.67,1.71,1.78.8,2.75.35,5.7-2.6,9.43-6.77,10.63-13.08,1.14-6.02,2-12.06,2.41-18.18.12-1.83,0-3.83,1.9-5.02,2.5-1.56,2.38-3.08,0-4.66-.62-.41-1.19-.94-1.65-1.52-2.3-2.93-4.43-3.21-6.5.23-.94,1.57-2.41,1.92-4.17,1.87-3.37-.1-6.74.02-10.11-.06-.99-.02-2.52.61-2.79-.99-.21-1.29-.33-2.79.85-3.85.91-.82,1.88-1.57,3.2-2.67-3.77-2.01-7.16-3.99-10.92-5.28-.18.21-.35.43-.53.64Z"/>
      <path class="cls-11" d="m235.7,565.87c.33,8.77.43,17.48,0,26.19-.06,1.14.2,2.2,1.61,1.56,2.41-1.11,6.29.22,6.75-4.28.17-1.71,2.06-.95,3.15-.95,18.95-.05,37.91-.03,56.87-.03.12,0,.25.01.37,0,1.83-.17,3.25.1,3.05,2.49-.16,1.8.58,1.93,2.25,1.46,5.93-1.7,5.93-1.61,5.63-7.65-.12-2.37-.03-4.74-.16-7.11-.08-1.49.17-2.7,1.6-3.46,2.25-1.19,2.39-2.49.23-3.98-.61-.42-1.16-.96-1.62-1.55-2.32-2.94-4.6-3.9-7.06-.13-.85,1.31-2.28,1.31-3.69,1.31-19.33-.01-38.66-.03-57.99.02-2.28,0-3.99-1.23-5.93-2.03-1.57-.64-2.89-1.97-5.06-1.86Zm39.67,7.48c8.36,0,16.72,0,25.08,0,7.08,0,6.87,0,7.11,7.16.12,3.62-1.24,4.31-4.51,4.28-16.97-.14-33.94-.07-50.91-.07-8.61,0-8.52,0-8.32-8.54.06-2.39.91-2.91,3.09-2.88,9.48.1,18.97.04,28.45.04Z"/>
      <path class="cls-11" d="m241.98,612.31c.18-.21.35-.43.53-.64,1.12-1.53,2.74-.77,4.1-.78,30.19-.05,60.39-.04,90.58-.04,1.33,0,2.66,0,5.22,0-4.33-4.23-7.88-7.66-11.38-11.14-.89-.89-1.64-1.02-2.48-.03-.16.19-.39.33-.53.53-4.38,6.71-10.81,7.74-18.19,7.11-5.69-.48-11.46-.1-18.12-.1,3.91-4.78,7.91-8.24,12.97-11.12-2.81-2.75-6.13-4.55-9.37-6.86-1.66,5.55-3.51,10.7-5.94,15.63-.62,1.26-1.19,2.37-2.95,2.36-8.22-.06-16.43-.03-24.49-.03-.59-.97-.04-1.42.32-1.87,3.36-4.21,3.22-6.29-.88-9.63-2.63-2.14-5.77-3.44-8.79-4.91-.82-.4-1.76-.47-2.35.42-.56.84.25,1.37.68,1.91,2.35,2.96,4.2,6.18,5.28,9.82,1.21,4.07,1.1,4.25-3.04,4.26-13.85.01-27.7,0-41.55.01-.98,0-1.96.08-2.99.13,1.69,4.21,3.45,5.25,7.39,4.49,8.04-1.57,16.16-.83,24.26-.99,1.04-.02,1.66.36,1.7,1.45Z"/>
      <path class="cls-4" d="m285.27,621.02c.79,13.69.91,27.25-.07,40.89,6.58-1.42,7.45-2.22,7.59-8.01.06-2.35,1.11-2.6,3-2.58,6.37.07,12.74.16,19.1-.04,2.73-.08,3.33.92,3.29,3.45-.09,5.45-.02,5.34,4.9,2.83,2.13-1.09,2.7-2.44,2.55-4.73-.34-5.11-.41-10.23-.54-15.35-.12-4.31-.97-8.93,4.78-10.94-1.32-1.25-2.18-2.14-3.12-2.94-1.52-1.29-2.93-3.19-4.68-3.61-2.16-.52-2.87,2.24-4.21,3.56-.95.93-1.97.92-3.08.93-6.49,0-12.98-.08-19.47.04-3.71.07-6.2-3.05-10.03-3.5Zm20.08,7.08c3.37,0,6.74.06,10.1-.03,1.82-.05,2.75.41,2.7,2.48-.11,4.87-.1,9.74,0,14.6.04,1.95-.7,2.63-2.61,2.61-6.73-.07-13.47-.05-20.2-.01-1.66.01-2.53-.47-2.5-2.33.08-4.99.07-9.99,0-14.98-.03-1.79.67-2.42,2.42-2.37,3.37.09,6.73.03,10.1.02Z"/>
      <path class="cls-1" d="m275.37,573.35c-9.48,0-18.97.06-28.45-.04-2.18-.02-3.04.49-3.09,2.88-.2,8.54-.3,8.54,8.32,8.54,16.97,0,33.94-.08,50.91.07,3.27.03,4.63-.66,4.51-4.28-.24-7.16-.03-7.16-7.11-7.16-8.36,0-16.72,0-25.08,0Z"/>
      <path class="cls-8" d="m305.35,628.1c-3.37,0-6.74.06-10.1-.02-1.75-.05-2.45.58-2.42,2.37.08,4.99.08,9.99,0,14.98-.03,1.86.84,2.34,2.5,2.33,6.73-.04,13.47-.06,20.2.01,1.91.02,2.65-.66,2.61-2.61-.09-4.87-.1-9.74,0-14.6.05-2.07-.88-2.53-2.7-2.48-3.36.09-6.73.03-10.1.03Z"/>
    </g>
    <g>
      <path class="cls-1" d="m770.56,594.92c0-27.48-.03-54.97.06-82.45,0-2.16-.34-2.72-2.65-2.72-54.14.09-108.28.09-162.42,0-2.5,0-2.79.77-2.79,2.95.06,55.09.06,110.18,0,165.27,0,2.27.43,2.91,2.83,2.9,54.02-.08,108.03-.09,162.05.02,2.7,0,3-.72,2.99-3.15-.1-27.61-.06-55.22-.06-82.82Zm-51.68-14.67c1.15,3.83,5.36,5.18,7.32,9.08-8.15,0-15.95-.03-23.75,0-6.98.03-13.98-.4-20.91.85-4.55.82-5.71.23-8-4.32,1.31-.06,2.52-.16,3.73-.16,9.74-.01,19.47-.16,29.2.07,3.63.08,6.6-.55,8.75-3.62.9-1.28,2.16-1.88,3.72-1.84-5.83-3.48-11.68-6.94-17.48-10.48-1.18-.72-1.84.04-2.63.54-10.62,6.74-22.33,10.86-34.34,14.25-2.39.67-4.83,1.18-7.26,1.7-.84.18-1.81.36-1.99-.96-.14-1.03.62-1.18,1.35-1.41,1.42-.44,2.83-.93,4.24-1.39,11.44-3.74,22.16-8.89,31.91-16.03,1.72-1.26,2.6-2.11.65-4.25-4.21-4.61-7.75-9.79-10.83-15.22-1.44-2.54-2.37-2.55-4.11-.24-4.16,5.49-9.09,10.27-14.52,14.51-.64.5-1.36,1.41-2.27.64-1.17-.99-.08-1.78.48-2.52,2.19-2.88,4.5-5.67,6.62-8.59,5.66-7.83,9.93-16.4,13.32-25.43.36-.97.15-3.35,2.45-1.83,2.97,1.96,5.89,4,8.84,6-4.35.65-5.65,4.22-7.69,6.94-.48.64-1.51,1.29-.91,2.22.52.81,1.6.44,2.43.44,8.36.02,16.72-.1,25.07.08,3.21.07,5.86-.37,7.71-3.29.64-1,1.45-2.14,2.93-.7,2.63,2.55,5.39,4.98,8.23,7.59-2.47,1.8-4.83,1.68-6.38,3.33-5.72,6.1-11.69,11.95-17.95,17.5-1.2,1.06-1.11,1.63.21,2.42,2.9,1.73,5.89,3.25,9.03,4.45,9.04,3.44,18.45,4.98,28.08,5.37,1.1.04,2.74-.56,3.1,1.23.39,1.99-1.48,1.66-2.48,2.02-2.54.9-4.95,2.13-6.27,4.46-1.4,2.46-3,2.15-5.23,1.56-4.92-1.31-9.35-4-14.37-4.96Zm-97.46-50.32c5.57,7.74,13,6.22,20.01,6.29,1.75.02,3.49,0,5.24,0,1,0,1.9-.09,2.73-.88,1.37-1.3,2.12-4.07,4.28-3.51,1.74.45,3.09,2.4,4.61,3.69.76.65,1.48,1.34,2.28,1.94,1.79,1.33,1.48,2.26-.42,3.15-1.69.79-3.13,1.81-4.02,3.68-4.3,9.01-8.49,18.09-13.23,26.87-1.9,3.52-1.25,5.21,1.64,7.56,7.91,6.45,13.96,14.16,15.67,24.71,1.87,11.59-4.67,21.31-16.1,23.49-1.27.24-2.02.38-2.44-1.2-1.14-4.26-4.57-6.36-8.18-8.21-3.75-1.91-4.24-1.63-4.25,2.46-.02,10.12-.24,20.25.1,30.37.14,4.28-.89,7.2-4.91,8.83-.99.4-1.8,1.79-2.94,1.15-1.17-.65-.46-2.05-.44-3.1.71-32.73.49-65.47.35-98.21-.04-9.2,0-18.41,0-29.06Zm87.27,65.18c-3.63,2.12-4.86,4.75-4.63,8.52.42,6.98-.65,5.76,6.38,6.14,5.94.32,11.4.02,15.07-5.59.4-.61,1.09-1.69,2.07-.69,2.95,3.04,5.83,6.14,9.32,9.83-7.82,0-14.55-.1-21.28.04-3.7.07-8.62-1.68-10.76.78-2.23,2.56-.51,7.43-.68,11.28-.02.37.03.75.03,1.12.02,1.19.57,1.87,1.81,1.87,5.11,0,10.62,1.34,14.1-4.21.32-.52.89-.87,1.3-1.34.88-.99,1.6-1.31,2.68-.09,2.6,2.94,5.34,5.76,8.13,8.74-1.54.87-2.79.53-3.99.53-6.99.04-13.98.08-20.96-.01-2.13-.03-3.25.44-3.15,2.86.15,3.62.14,7.25,0,10.87-.09,2.34.9,3.02,3.1,2.96,4.36-.11,8.75-.26,13.1.03,5.93.39,11.44.15,15.09-5.54.72-1.13,1.71-1.33,2.75-.18,2.64,2.9,5.32,5.76,8.58,9.27h-4.91c-23.08,0-46.17.02-69.25-.02-3.64,0-7.22.41-10.77,1.03-3.93.68-5.75-.33-7.43-4.62,1.07,0,2.05,0,3.04,0,11.85,0,23.71-.09,35.56.06,2.81.03,3.73-.79,3.55-3.59-.23-3.48-.13-7-.03-10.49.05-1.87-.48-2.65-2.51-2.65-4.87-.02-9.72.1-14.53.99-4.09.76-5.64-.09-7.54-4.56,4.36,0,8.57.12,12.77-.04,3.81-.14,8.82,1.72,11.11-.82,2.22-2.47.38-7.41.7-11.24.21-2.58-.89-3.14-3.23-3.08-4.99.15-9.98.15-14.97,0-2.12-.06-3.47.69-4.7,2.33-3.76,5.02-8.32,9.29-12.95,13.47-.82.74-1.77,2.33-3.08,1-1.15-1.18.48-2.01,1.05-2.72,6.44-8.08,11.3-17.02,14.73-26.75,2.29-6.5,2.24-6.42,8.24-2.68,2.41,1.5,4.26,2.46.68,4.84-1.48.98-2.41,2.83-3.51,4.33-1.13,1.54-1.38,2.67,1.23,2.62,4.62-.09,9.24-.12,13.85.01,2.3.07,2.68-1,2.58-2.95-.23-4.49-.31-8.98-.47-13.48-.06-1.72-.07-3.05,2.4-1.99,3.15,1.35,6.45,2.38,10.33,3.79Z"/>
      <path class="cls-3" d="m621.42,529.93c0,10.65-.03,19.86,0,29.06.14,32.74.36,65.47-.35,98.21-.02,1.05-.73,2.45.44,3.1,1.14.64,1.94-.75,2.94-1.15,4.02-1.63,5.05-4.56,4.91-8.83-.34-10.11-.12-20.24-.1-30.37,0-4.1.51-4.38,4.25-2.46,3.61,1.85,7.04,3.95,8.18,8.21.42,1.58,1.17,1.44,2.44,1.2,11.43-2.18,17.97-11.9,16.1-23.49-1.71-10.55-7.76-18.26-15.67-24.71-2.89-2.35-3.54-4.04-1.64-7.56,4.73-8.78,8.93-17.86,13.23-26.87.89-1.86,2.33-2.88,4.02-3.68,1.89-.89,2.2-1.82.42-3.15-.8-.6-1.52-1.29-2.28-1.94-1.52-1.29-2.87-3.24-4.61-3.69-2.17-.56-2.91,2.22-4.28,3.51-.84.79-1.74.88-2.73.88-1.75.02-3.49.02-5.24,0-7.02-.07-14.44,1.45-20.01-6.29Zm7.81,46.63c0-11.12.07-22.25-.05-33.37-.03-2.55.63-3.56,3.33-3.43,4.48.21,8.99.18,13.47,0,2.51-.09,2.95.58,2.18,2.95-2.92,9.01-5.54,18.13-8.55,27.11-1.28,3.82-1.7,6.92,1.82,9.91,2.14,1.81,3.53,4.5,5.36,6.71,5.03,6.09,6.08,13.27,5.61,20.8-.33,5.22-3.37,7.88-8.67,7.56-3.72-.22-7.4-1.15-11.12-1.32-2.86-.13-3.46-1.33-3.43-3.94.12-11,.05-21.99.05-32.99Z"/>
      <path class="cls-5" d="m708.69,595.11c-3.88-1.4-7.18-2.43-10.33-3.79-2.47-1.06-2.46.27-2.4,1.99.16,4.49.24,8.99.47,13.48.1,1.95-.27,3.02-2.58,2.95-4.61-.14-9.23-.1-13.85-.01-2.61.05-2.36-1.08-1.23-2.62,1.1-1.51,2.03-3.35,3.51-4.33,3.58-2.37,1.73-3.34-.68-4.84-6-3.73-5.95-3.82-8.24,2.68-3.43,9.73-8.29,18.67-14.73,26.75-.56.71-2.2,1.54-1.05,2.72,1.31,1.33,2.26-.26,3.08-1,4.63-4.19,9.19-8.46,12.95-13.47,1.23-1.64,2.58-2.4,4.7-2.33,4.99.15,9.98.15,14.97,0,2.34-.07,3.44.5,3.23,3.08-.32,3.83,1.53,8.78-.7,11.24-2.29,2.54-7.3.68-11.11.82-4.2.15-8.42.04-12.77.04,1.9,4.47,3.45,5.32,7.54,4.56,4.8-.89,9.65-1.01,14.53-.99,2.03,0,2.56.79,2.51,2.65-.1,3.5-.2,7.01.03,10.49.18,2.8-.73,3.63-3.55,3.59-11.85-.15-23.71-.06-35.56-.06-.98,0-1.97,0-3.04,0,1.68,4.29,3.5,5.31,7.43,4.62,3.56-.62,7.13-1.04,10.77-1.03,23.08.05,46.17.02,69.25.02h4.91c-3.26-3.51-5.94-6.37-8.58-9.27-1.05-1.15-2.03-.95-2.75.18-3.66,5.68-9.17,5.93-15.09,5.54-4.35-.29-8.73-.14-13.1-.03-2.2.06-3.19-.62-3.1-2.96.13-3.62.15-7.25,0-10.87-.1-2.43,1.02-2.89,3.15-2.86,6.99.09,13.97.05,20.96.01,1.19,0,2.45.34,3.99-.53-2.79-2.98-5.53-5.8-8.13-8.74-1.08-1.22-1.81-.91-2.68.09-.41.47-.98.82-1.3,1.34-3.48,5.55-8.99,4.2-14.1,4.21-1.23,0-1.79-.67-1.81-1.87,0-.37-.05-.75-.03-1.12.17-3.85-1.55-8.73.68-11.28,2.14-2.46,7.07-.71,10.76-.78,6.73-.14,13.46-.04,21.28-.04-3.49-3.69-6.37-6.79-9.32-9.83-.98-1-1.67.08-2.07.69-3.67,5.61-9.13,5.91-15.07,5.59-7.03-.38-5.96.83-6.38-6.14-.23-3.77,1-6.4,4.63-8.52Z"/>
      <path class="cls-9" d="m718.88,580.25c5.02.96,9.45,3.65,14.37,4.96,2.23.59,3.83.9,5.23-1.56,1.32-2.33,3.73-3.56,6.27-4.46,1-.36,2.88-.03,2.48-2.02-.35-1.79-1.99-1.19-3.1-1.23-9.63-.39-19.04-1.93-28.08-5.37-3.15-1.2-6.14-2.73-9.03-4.45-1.33-.79-1.41-1.36-.21-2.42,6.26-5.55,12.23-11.4,17.95-17.5,1.55-1.65,3.91-1.52,6.38-3.33-2.84-2.61-5.59-5.04-8.23-7.59-1.48-1.44-2.29-.3-2.93.7-1.85,2.92-4.5,3.36-7.71,3.29-8.35-.18-16.71-.05-25.07-.08-.83,0-1.9.36-2.43-.44-.6-.93.43-1.58.91-2.22,2.04-2.72,3.35-6.29,7.69-6.94-2.94-2-5.86-4.04-8.84-6-2.3-1.52-2.09.86-2.45,1.83-3.39,9.03-7.66,17.6-13.32,25.43-2.12,2.93-4.43,5.72-6.62,8.59-.56.74-1.64,1.53-.48,2.52.91.77,1.63-.14,2.27-.64,5.43-4.25,10.36-9.02,14.52-14.51,1.75-2.31,2.67-2.3,4.11.24,3.09,5.43,6.62,10.61,10.83,15.22,1.95,2.13,1.07,2.99-.65,4.25-9.74,7.13-20.47,12.28-31.91,16.03-1.41.46-2.82.95-4.24,1.39-.73.23-1.49.37-1.35,1.41.18,1.32,1.15,1.14,1.99.96,2.43-.52,4.87-1.02,7.26-1.7,12.01-3.39,23.72-7.5,34.34-14.25.79-.5,1.45-1.26,2.63-.54,5.8,3.54,11.65,6.99,17.48,10.48l-.07-.07Zm-2.76-37.2c-4.59,6.14-9.19,11.34-14.45,15.98-1.12.99-2.09,1.22-3.26.21-5.53-4.81-10.55-10.1-15.6-16.18h33.3Z"/>
      <path class="cls-11" d="m718.95,580.32c-1.56-.04-2.82.56-3.72,1.84-2.16,3.07-5.12,3.71-8.75,3.62-9.73-.23-19.47-.08-29.2-.07-1.21,0-2.43.1-3.73.16,2.29,4.55,3.46,5.14,8,4.32,6.93-1.25,13.93-.82,20.91-.85,7.8-.04,15.6,0,23.75,0-1.96-3.9-6.18-5.25-7.32-9.08,0,0,.07.07.07.07Z"/>
      <path class="cls-7" d="m629.24,576.56c0,11,.07,22-.05,32.99-.03,2.61.57,3.81,3.43,3.94,3.72.17,7.4,1.1,11.12,1.32,5.3.31,8.35-2.35,8.67-7.56.47-7.53-.58-14.71-5.61-20.8-1.83-2.21-3.22-4.9-5.36-6.71-3.52-2.98-3.1-6.09-1.82-9.91,3.01-8.98,5.63-18.1,8.55-27.11.77-2.38.32-3.05-2.18-2.95-4.49.17-8.99.2-13.47,0-2.7-.12-3.35.89-3.33,3.43.12,11.12.05,22.24.05,33.37Z"/>
      <path class="cls-1" d="m716.12,543.05h-33.3c5.05,6.08,10.06,11.37,15.6,16.18,1.17,1.02,2.14.78,3.26-.21,5.25-4.63,9.85-9.83,14.45-15.98Z"/>
    </g>
  </g>
</svg>